<svg width="96" height="96" xmlns="http://www.w3.org/2000/svg" xmlns:xlink="http://www.w3.org/1999/xlink" overflow="hidden"><defs><clipPath id="clip0"><rect x="0" y="0" width="96" height="96"/></clipPath></defs><g clip-path="url(#clip0)"><path d="M84 22.1C82.1 21.3 80.1 20.9 78 20.8 75.9 20.9 73.9 21.3 72 22.1 70.7 22.6 69.4 22.9 68 23L68 23C66.6 22.9 65.3 22.6 64 22.1 62.1 21.3 60.1 20.9 58 20.8 55.9 20.9 53.9 21.3 52 22.1 50.7 22.6 49.4 22.9 48 23 46.6 22.9 45.3 22.6 44 22.1 42.1 21.3 40.1 20.9 38 20.8 35.9 20.9 33.9 21.3 32 22.1 30.7 22.6 29.4 22.9 28 23 26.6 22.9 25.3 22.6 24 22.1 22.1 21.3 20.1 20.9 18 20.8 15.9 20.9 13.9 21.3 12 22.1 10.7 22.6 9.4 22.9 8 23L8 29C10.1 28.9 12.1 28.5 14 27.7 15.3 27.2 16.6 26.8 18 26.7 19.4 26.8 20.7 27.1 22 27.7 23.9 28.5 25.9 28.9 28 29 30.1 28.9 32.1 28.5 34 27.7 35.3 27.2 36.6 26.8 38 26.7 39.4 26.8 40.7 27.1 42 27.6 43.9 28.4 45.9 28.8 48 28.9 50.1 28.8 52.1 28.4 54 27.6 55.3 27.1 56.6 26.7 58 26.6 59.4 26.7 60.7 27 62 27.6 63.9 28.4 65.9 28.8 68 28.9 70.1 28.8 72.1 28.4 74 27.6 75.3 27.1 76.6 26.7 78 26.6 79.4 26.7 80.7 27 82 27.5 83.9 28.3 85.9 28.7 88 28.8L88 22.8C86.6 22.9 85.3 22.6 84 22.1Z"/><path d="M61.7 57 65 58.1 67.9 52.8 65 49.8C64.9 45.6 61.9 42.1 57.8 41.2 53.7 40.3 49.6 42.5 47.8 46.3 46.1 50.1 47.2 54.6 50.5 57.2 53.8 59.7 58.4 59.6 61.7 57Z"/><path d="M74.1 70.5 38.1 53.5C37.5 53.2 36.7 53 36 53L8 53 8 68 45.5 68 69.9 79.5C72.4 80.6 75.2 79.5 76.4 77 77.5 74.6 76.5 71.7 74.1 70.5Z"/><path d="M10 49 31 49 31 37 10 37C8.9 37 8 37.9 8 39L8 47C8 48.1 8.9 49 10 49Z"/><path d="M42 43C42 39.7 39.3 37 36 37L34 37 34 49 36 49C39.3 49 42 46.3 42 43Z"/></g></svg>